<?xml version="1.0" encoding="UTF-8"?>
<svg width="300px" height="300px" viewBox="0 0 300 300" version="1.1" xmlns="http://www.w3.org/2000/svg" xmlns:xlink="http://www.w3.org/1999/xlink">
    <!-- Generator: Sketch 46.2 (44496) - http://www.bohemiancoding.com/sketch -->
    <title>BearyChat-svg-en</title>
    <desc>Created with Sketch.</desc>
    <defs></defs>
    <g id="Page-1" stroke="none" stroke-width="1" fill="none" fill-rule="evenodd">
        <g id="BearyChat-svg-en">
            <rect id="bg" fill="#2DBE60" x="0" y="0" width="300" height="300"></rect>
            <path d="M101.416151,230.319968 L97.5239478,230.319968 L86.983524,256.340641 L90.8757271,256.340641 L93.9618527,248.753384 L105.015095,248.753384 L108.099685,256.340641 L111.993424,256.340641 L101.453,230.319968 L101.416151,230.319968 Z M99.5061309,235.083453 L103.693128,245.454644 L95.2838199,245.454644 L99.5061309,235.083453 Z M158.084325,230.319968 L162.345021,230.319968 L152.097856,247.250336 L152.097856,256.340641 L148.498911,256.340641 L148.498911,247.250336 L138.251746,230.319968 L142.512442,230.319968 L150.298383,243.147211 L158.084325,230.319968 Z M180.800358,252.107129 C182.183741,251.288956 183.303037,250.182737 184.159783,248.791535 L187.098511,250.769554 C185.922406,252.577503 184.380878,254.013137 182.470858,255.074923 C180.560838,256.138242 178.48039,256.669902 176.227979,256.669902 C173.803605,256.669902 171.586508,256.07236 169.579759,254.87421 C167.573009,253.677593 165.986956,252.0581 164.823133,250.018795 C163.660846,247.977958 163.08047,245.736408 163.08047,243.294145 C163.08047,240.873332 163.660846,238.6517 164.823133,236.623121 C165.986956,234.596073 167.573009,232.982709 169.579759,231.786092 C171.586508,230.587942 173.803605,229.9904 176.227979,229.9904 C178.455824,229.9904 180.517847,230.509802 182.415584,231.547075 C184.313321,232.585879 185.850242,233.996998 187.024813,235.780433 L184.122933,237.721679 C183.290754,236.354993 182.183741,235.279416 180.800358,234.496483 C179.416976,233.716613 177.892338,233.32438 176.227979,233.32438 C174.465356,233.32438 172.854737,233.776367 171.399191,234.680342 C169.940574,235.584316 168.79057,236.800851 167.946108,238.326883 C167.100111,239.854446 166.679415,241.510711 166.679415,243.294145 C166.679415,245.077579 167.100111,246.738441 167.946108,248.278262 C168.79057,249.81655 169.940574,251.04381 171.399191,251.961574 C172.854737,252.877806 174.465356,253.33439 176.227979,253.33439 C177.892338,253.33439 179.416976,252.925303 180.800358,252.107129 Z M232.088387,230.319202 L232.125236,230.319202 L242.664124,256.339875 L238.771921,256.339875 L235.685796,248.754151 L224.632553,248.754151 L221.547963,256.339875 L217.654225,256.339875 L228.194648,230.319202 L232.088387,230.319202 Z M225.95452,245.45541 L234.365364,245.45541 L230.178367,235.084219 L225.95452,245.45541 Z M241.746885,230.319508 L253.242319,230.319508 L261.138808,230.319508 L261.138808,233.618248 L253.242319,233.618248 L253.242319,256.340181 L249.641839,256.340181 L249.641839,233.618248 L241.746885,233.618248 L241.746885,230.319508 Z M55.9857729,242.962126 C57.1618785,243.550476 58.10307,244.423807 58.8139536,245.583652 C59.5233019,246.745029 59.8795114,247.984547 59.8795114,249.303736 C59.8795114,250.501885 59.5970004,251.643345 59.0350492,252.729646 C58.4715626,253.81748 57.705405,254.690811 56.738112,255.351172 C55.7723543,256.011533 54.700655,256.340947 53.5245494,256.340947 L40.1927942,256.340947 L40.1927942,230.318742 L52.790635,230.318742 C53.9667405,230.318742 55.0369045,230.625174 56.0041975,231.234974 C56.9714906,231.846305 57.7361128,232.664479 58.2995994,233.691026 C58.863086,234.717573 59.1440616,235.840647 59.1440616,237.06331 C59.1440616,239.554602 58.0923223,241.521896 55.9857729,242.962126 Z M55.1597353,251.905344 C55.9059328,251.148457 56.280567,250.158682 56.280567,248.93755 C56.280567,247.739401 55.9366406,246.781801 55.2518585,246.060154 C54.565541,245.340038 53.6596634,244.978449 52.5342255,244.978449 L47.3922184,244.978449 L47.3922184,241.68124 L51.505517,241.68124 C52.7046534,241.68124 53.678088,241.29054 54.4242855,240.507606 C55.1720184,239.726204 55.5451172,238.724172 55.5451172,237.50304 C55.5451172,236.329406 55.1827661,235.390192 54.4611348,234.680801 C53.7395034,233.972944 52.850515,233.617482 51.7987757,233.617482 L43.793274,233.617482 L43.793274,239.303328 L43.793274,241.68124 L43.793274,244.978449 L43.793274,248.879328 L43.793274,253.042207 L52.2394315,253.042207 C53.4385678,253.042207 54.4120024,252.663763 55.1597353,251.905344 Z M68.9871131,244.978602 L68.9871131,253.040828 L83.8603957,253.040828 L83.8603957,256.3411 L67.7756937,256.3411 L65.3881687,256.3411 L65.3881687,230.318895 L68.9871131,230.318895 L83.3107276,230.318895 L83.3107276,233.617636 L68.9871131,233.617636 L68.9871131,241.679861 L69.002467,241.679861 L69.002467,244.978602 L68.9871131,244.978602 Z M72.6007972,244.979828 L72.6007972,241.681087 L81.6933521,241.681087 L81.6933521,244.979828 L72.6007972,244.979828 Z M134.102059,243.091594 C133.122483,244.496584 131.788232,245.467974 130.099308,246.005762 L136.415885,256.340181 L132.339436,256.340181 L126.280803,246.445492 L124.208032,243.145219 L126.316117,243.146751 L127.197429,243.146751 C128.617661,243.146751 129.767665,242.700893 130.648976,241.807644 C131.531823,240.917459 131.972479,239.751485 131.972479,238.30819 C131.972479,236.892474 131.560995,235.755612 130.742635,234.900666 C129.921203,234.045721 128.838756,233.618248 127.492223,233.618248 L119.815294,233.618248 L119.888992,256.340181 L116.216349,256.340181 L116.216349,230.319508 L128.482547,230.319508 C129.879748,230.319508 131.115733,230.636665 132.192039,231.272512 C133.26988,231.908358 134.102059,232.8108 134.690112,233.984435 C135.276629,235.156537 135.571423,236.512499 135.571423,238.052319 C135.571423,240.007356 135.081635,241.686603 134.102059,243.091594 Z M209.831741,241.680474 L209.831741,230.319508 L213.430685,230.319508 L213.430685,256.340181 L209.831741,256.340181 L209.831741,244.979215 L199.477099,244.979215 L199.477099,241.680474 L209.831741,241.680474 Z M192.239904,256.340488 L192.239904,230.319814 L195.838848,230.319814 L195.838848,241.680781 L195.838848,244.977989 L195.838848,256.340488 L192.239904,256.340488 Z" id="BearyChat" fill="#FFFFFF"></path>
            <g id="BearyChat" transform="translate(65.625000, 53.125000)" fill="#FFFFFF">
                <path d="M158.544976,45.7525633 C154.927995,40.0133014 149.514198,33.1989132 141.909835,27.6845556 C154.906769,40.2140337 161.953939,57.3740168 161.953939,76.3143166 C161.953939,94.7743303 155.255943,110.320048 142.889434,121.497998 C115.823632,146.945808 77.2478066,154.604112 26.419033,149.617334 C22.5823585,149.240041 22.0325943,144.092467 25.4245755,142.27957 C30.0391981,139.808776 35.2863679,136.297538 40.4199764,131.361205 C18.7679717,120.617299 6.72516509,101.081108 6.72516509,76.3143166 C6.72516509,66.0391357 8.81490566,56.2925848 12.7853066,47.5181666 C5.14591981,43.0936487 -0.000424528302,34.9035612 -0.000424528302,25.5069781 C-0.000424528302,11.4178837 11.5329481,0.000315286314 25.7599528,0.000315286314 C34.605,0.000315286314 42.4025236,4.41432368 47.0404953,11.1393808 C40.4698585,14.5024348 33.6593632,19.3893726 28.0969811,26.4465313 C41.3751651,14.3374349 60.4608962,6.87145502 84.3384906,6.87145502 C97.8904953,6.87145502 109.895094,9.27919151 120.179292,13.5681363 C124.505236,5.50311242 133.053113,0.000315286314 142.91809,0.000315286314 C157.145094,0.000315286314 168.678467,11.4178837 168.678467,25.5069781 C168.678467,33.7695814 164.693208,41.0894787 158.544976,45.7525633 Z M116.845684,77.8749839 C120.389434,77.8749839 123.260307,75.0311014 123.260307,71.5230156 C123.260307,68.013879 120.389434,65.1699964 116.845684,65.1699964 C113.304057,65.1699964 110.432123,68.013879 110.432123,71.5230156 C110.432123,75.0311014 113.304057,77.8749839 116.845684,77.8749839 Z M48.7513443,77.8749839 C52.294033,77.8749839 55.165967,75.0311014 55.165967,71.5230156 C55.165967,68.013879 52.294033,65.1699964 48.7513443,65.1699964 C45.2086557,65.1699964 42.3367217,68.013879 42.3367217,71.5230156 C42.3367217,75.0311014 45.2086557,77.8749839 48.7513443,77.8749839 Z M82.5055896,127.384394 C97.7238679,127.384394 110.059599,115.169151 110.059599,100.100567 C110.059599,85.0309323 97.7238679,72.8146386 82.5055896,72.8146386 C67.2883726,72.8146386 54.9515802,85.0309323 54.9515802,100.100567 C54.9515802,115.169151 67.2883726,127.384394 82.5055896,127.384394 Z" id="Combined-Shape"></path>
                <path d="M82.5055896,130.192197 C65.7224155,130.192197 52.1160816,116.719921 52.1160816,100.100675 C52.1160816,83.4802705 65.7224155,70.0068355 82.5055896,70.0068355 C99.2899343,70.0068355 112.895098,83.4802705 112.895098,100.100675 C112.895098,116.719921 99.2899343,130.192197 82.5055896,130.192197 Z M91.6935495,86.1422114 C85.5952005,86.9503954 79.416191,86.9503954 73.3199646,86.1422114 C69.9470873,85.5253012 68.2755071,89.515775 70.6454363,91.9729063 C72.4231486,93.7301021 74.2104127,95.252935 76.0019222,96.6969463 C79.5828184,99.4094595 85.4275118,99.4094595 89.0094693,96.6969463 C90.8020401,95.252935 92.5893042,93.7301021 94.3670165,91.9729063 C96.7358844,89.515775 95.0653656,85.5253012 91.6935495,86.1422114 Z" id="Combined-Shape" opacity="0.800000012"></path>
            </g>
        </g>
    </g>
</svg>